<?xml version="1.0" encoding="iso-8859-1"?>
<!-- Generator: Adobe Illustrator 19.0.0, SVG Export Plug-In . SVG Version: 6.00 Build 0)  -->
<svg version="1.1" id="Layer_1" xmlns="http://www.w3.org/2000/svg" xmlns:xlink="http://www.w3.org/1999/xlink" x="0px" y="0px"
	 viewBox="0 0 512 512" style="enable-background:new 0 0 512 512;" xml:space="preserve">
<g>
	<g>
		<g>
			<path d="M437.019,74.981C388.668,26.628,324.38,0,256,0S123.332,26.628,74.981,74.981C26.629,123.333,0,187.62,0,256
				c0,68.38,26.628,132.668,74.981,181.019C123.333,485.371,187.62,512,256,512c68.38,0,132.668-26.628,181.019-74.981
				C485.371,388.667,512,324.38,512,256S485.372,123.332,437.019,74.981z M256,491.102C126.365,491.102,20.898,385.635,20.898,256
				S126.365,20.898,256,20.898S491.102,126.365,491.102,256S385.635,491.102,256,491.102z"/>
			<path d="M256,41.796C137.887,41.796,41.796,137.887,41.796,256S137.887,470.204,256,470.204S470.204,374.113,470.204,256
				S374.113,41.796,256,41.796z M256,449.306c-106.589,0-193.306-86.717-193.306-193.306S149.411,62.694,256,62.694
				S449.306,149.411,449.306,256S362.589,449.306,256,449.306z"/>
			<path d="M417.735,204.921c-2.906-8.4-9.917-14.498-18.713-15.776l-84.462-12.273l-37.773-76.536
				c-3.933-7.971-11.898-12.922-20.787-12.922c-8.889,0-16.853,4.951-20.787,12.921l-37.773,76.536l-84.462,12.273
				c-8.796,1.278-15.966,7.323-18.713,15.776c-2.746,8.453-0.498,17.558,5.866,23.763l61.117,59.575l-14.428,84.121
				c-1.503,8.76,2.031,17.448,9.222,22.672c4.064,2.952,8.817,4.451,13.604,4.451c3.683,0,7.387-0.889,10.808-2.687L256,357.1
				l75.545,39.717c7.867,4.137,17.221,3.46,24.412-1.764c7.191-5.224,10.725-13.912,9.222-22.672l-14.428-84.121l61.117-59.575
				C416.131,224.588,421.421,215.576,417.735,204.921z M159.56,257.43l20.237-20.237c4.08-4.08,4.08-10.697,0-14.778
				c-4.08-4.081-10.697-4.08-14.778,0l-20.426,20.426l-29.876-29.121c-0.675-0.657-0.869-1.445-0.578-2.341
				c0.291-0.895,0.911-1.418,1.843-1.554l89.898-13.063c3.403-0.494,6.346-2.632,7.867-5.716l40.205-81.462
				c0.417-0.844,1.105-1.272,2.047-1.272c0.941,0,1.63,0.428,2.047,1.273l30.962,62.736L181.661,279.669
				c-0.497-0.925-1.12-1.788-1.891-2.54L159.56,257.43z M343.674,378.145c-0.763,0.554-1.572,0.611-2.404,0.174l-53.046-27.888
				l44.377-44.377l11.982,69.858C344.741,376.84,344.436,377.592,343.674,378.145z M268.852,340.247l-7.99-4.201
				c-3.044-1.601-6.68-1.601-9.724,0L170.73,378.32c-0.833,0.438-1.642,0.38-2.404-0.174c-0.762-0.554-1.067-1.305-0.908-2.233
				l10.858-63.303l120.553-120.553c1.624,2.535,4.273,4.267,7.29,4.706l28.223,4.101l-107.15,107.15
				c-4.08,4.08-4.08,10.697,0,14.778c2.041,2.04,4.715,3.06,7.388,3.06s5.349-1.021,7.388-3.06l118.178-118.178l35.87,5.212
				c0.896,0.131,1.494,0.627,1.798,1.459L268.852,340.247z"/>
		</g>
	</g>
</g>
<g>
</g>
<g>
</g>
<g>
</g>
<g>
</g>
<g>
</g>
<g>
</g>
<g>
</g>
<g>
</g>
<g>
</g>
<g>
</g>
<g>
</g>
<g>
</g>
<g>
</g>
<g>
</g>
<g>
</g>
</svg>
